<?xml version="1.0" encoding="utf-8"?>
<!-- Generator: Adobe Illustrator 24.0.1, SVG Export Plug-In . SVG Version: 6.00 Build 0)  -->
<svg version="1.1" id="Layer_1" xmlns="http://www.w3.org/2000/svg" xmlns:xlink="http://www.w3.org/1999/xlink" x="0px" y="0px"
	 viewBox="0 0 1383.09 764.14" style="enable-background:new 0 0 1383.09 764.14;" xml:space="preserve">
<style type="text/css">
	.st0{display:none;}
	.st1{display:inline;fill:none;stroke:#000000;stroke-width:2;stroke-miterlimit:10;}
	.st2{display:inline;}
	.st3{fill:none;stroke:#000000;stroke-width:5;stroke-miterlimit:10;}
</style>
<g>
	<path d="M636.83,278.7c-11.24,1.85-12.92,4.19-18.96,18.62c-5.2,12.92-23.15,58.38-35.74,90.93h-2.35
		c-11.07-31.21-22.48-62.58-33.55-93.28c-4.7-13.09-7.05-14.43-17.95-16.27v-2.01h39.26v2.01c-11.24,2.18-12.58,4.03-10.57,10.4
		c4.19,12.92,24.49,67.61,28.69,78.68c6.71-17.11,19.8-52.51,27.51-74.15c3.69-10.23,3.52-12.75-11.58-14.93v-2.01h35.23V278.7z"/>
	<path d="M684.48,385.74v-2.01c9.23-1.68,11.74-3.02,9.73-9.06c-2.18-7.21-6.38-19.46-11.41-33.39h-33.72
		c-3.69,10.74-6.88,19.29-9.4,27.35c-3.69,11.41-1.17,12.58,11.58,15.1v2.01h-35.06v-2.01c9.39-1.68,12.25-2.85,18.45-18.62
		l34.9-90.43l2.35-0.34c10.4,30.53,21.31,61.24,32.55,92.44c5.2,14.6,7.21,14.6,17.78,16.94v2.01H684.48z M666.36,293.63
		c-5.37,14.26-10.4,28.86-15.6,42.78h30.53L666.36,293.63z"/>
	<path d="M823.9,386.58c-1.34,0-5.37,0-6.54-0.17c-14.09-0.84-17.45-2.52-24.16-11.58c-5.54-7.72-13.59-21.14-19.46-31.21
		c-4.36-7.38-6.21-8.39-14.76-8.39h-7.05v31.88c0,12.92,1.34,14.76,14.76,16.61v2.01h-41.27v-2.01c13.09-2.01,14.6-3.36,14.6-16.61
		v-72.14c0-12.92-1.17-14.26-14.6-16.27v-2.01h40.1c11.41,0,20.47,1.85,26.51,6.21c6.04,4.03,10.23,11.58,10.23,20.64
		c0,13.76-9.23,23.32-21.47,28.69c3.19,5.7,10.91,18.45,15.94,26c5.7,8.72,10.07,15.1,13.92,19.29c4.19,4.53,7.05,5.87,13.76,7.05
		L823.9,386.58z M762.16,331.89c8.39,0,13.09-0.34,17.78-3.69c6.71-4.7,8.89-11.58,8.89-21.64c0-18.29-10.07-26.51-24.33-26.51
		c-6.21,0-9.23,0.67-10.57,1.51c-1.51,1.01-2.01,2.52-2.01,7.89v42.45H762.16z"/>
	<path d="M936.31,278.7c-11.91,2.68-12.92,4.7-13.25,16.11c-0.17,4.36-0.5,7.38-0.5,21.98v70.8h-2.68l-75.33-92.78v48.15
		c0,16.11,0.34,21.31,0.5,26.68c0.33,9.73,3.02,11.91,16.11,14.09v2.01h-37.92v-2.01c12.42-2.85,15.1-4.36,15.43-14.26
		c0.17-4.36,0.5-10.57,0.5-26.51V293.3c0-3.02-0.67-5.03-2.35-7.05c-4.03-5.03-9.06-6.38-15.27-7.55v-2.01h23.49l72.31,87.74v-47.65
		c0-14.6-0.17-16.94-0.5-22.65c-0.67-10.74-2.85-13.76-16.78-15.44v-2.01h36.24V278.7z"/>
	<path d="M1037.81,278.7c-11.58,1.68-12.58,4.7-16.94,12.08c-8.56,14.93-15.27,27.35-24.5,45.47c-0.84,1.68-1.34,3.69-1.34,5.87
		l-0.17,25c-0.17,13.09,1.17,14.43,15.43,16.61v2.01h-42.28v-2.01c13.92-2.18,14.76-3.69,14.76-16.61v-24.16
		c0-2.52-0.5-4.19-2.01-7.21c-2.01-4.53-16.11-31.88-21.81-42.11c-6.71-12.25-8.05-13.59-18.12-14.93v-2.01h36.74v2.01
		c-11.41,1.51-10.91,3.86-8.72,8.39c7.88,15.44,20.13,38.59,24.16,46.47c5.2-10.07,17.28-33.55,21.81-43.45
		c3.52-7.38,3.02-9.4-9.73-11.41v-2.01h32.71V278.7z"/>
	<path d="M1087.97,385.74v-2.01c9.23-1.68,11.74-3.02,9.73-9.06c-2.18-7.21-6.38-19.46-11.41-33.39h-33.72
		c-3.69,10.74-6.88,19.29-9.4,27.35c-3.69,11.41-1.17,12.58,11.58,15.1v2.01h-35.06v-2.01c9.4-1.68,12.25-2.85,18.46-18.62
		l34.9-90.43l2.35-0.34c10.4,30.53,21.31,61.24,32.55,92.44c5.2,14.6,7.21,14.6,17.78,16.94v2.01H1087.97z M1069.85,293.63
		c-5.37,14.26-10.4,28.86-15.6,42.78h30.53L1069.85,293.63z"/>
</g>
<g>
	<g>
		<path class="st3" d="M236.94,294.89v56.2c0,0-3.79,58.75,50.53,58.75s112.42,0,112.42,0s55.58,0,55.58-57.47s0-57.47,0-57.47"/>
		<path class="st3" d="M346.17,379.52v59.37h-56.18c0,0-84.63,2.53-84.63-80.84s0-93.47,0-93.47h56.84c0,0,85.96-5.05,82.77,98.53
			c0-107.47,110.49-98.57,110.49-98.57"/>
		<circle cx="346.17" cy="275.44" r="7.83"/>
	</g>
</g>
<g>
	<path d="M655.93,440.03l-6.88-27.1h3.7l3.22,13.71c0.8,3.38,1.53,6.75,2.01,9.37h0.08c0.44-2.69,1.29-5.91,2.21-9.41l3.62-13.67
		h3.66l3.3,13.75c0.76,3.22,1.49,6.43,1.89,9.29h0.08c0.56-2.98,1.33-5.99,2.17-9.37l3.58-13.67h3.58l-7.68,27.1h-3.66l-3.42-14.11
		c-0.84-3.46-1.41-6.11-1.77-8.85h-0.08c-0.48,2.69-1.09,5.35-2.09,8.85l-3.86,14.11H655.93z"/>
	<path d="M725.12,427.32h-10.53v9.77h11.74v2.94h-15.24v-27.1h14.64v2.94h-11.14v8.56h10.53V427.32z"/>
	<path d="M756.43,412.93h3.5v24.16h11.58v2.94h-15.08V412.93z"/>
	<path d="M800.98,412.93h3.5v24.16h11.58v2.94h-15.08V412.93z"/>
	<path d="M845.52,440.03v-27.1h3.82l8.69,13.71c2.01,3.18,3.58,6.03,4.86,8.81l0.08-0.04c-0.32-3.62-0.4-6.92-0.4-11.14v-11.34h3.3
		v27.1h-3.54l-8.6-13.75c-1.89-3.02-3.7-6.11-5.07-9.05l-0.12,0.04c0.2,3.42,0.28,6.67,0.28,11.18v11.58H845.52z"/>
	<path d="M911.58,427.32h-10.53v9.77h11.74v2.94h-15.24v-27.1h14.64v2.94h-11.14v8.56h10.53V427.32z"/>
	<path d="M942.41,435.77c1.57,0.96,3.86,1.77,6.27,1.77c3.58,0,5.67-1.89,5.67-4.62c0-2.53-1.45-3.98-5.11-5.39
		c-4.42-1.57-7.16-3.86-7.16-7.68c0-4.22,3.5-7.36,8.76-7.36c2.77,0,4.79,0.64,5.99,1.33l-0.96,2.85c-0.88-0.48-2.69-1.29-5.15-1.29
		c-3.7,0-5.11,2.21-5.11,4.06c0,2.53,1.65,3.78,5.39,5.23c4.58,1.77,6.92,3.98,6.92,7.96c0,4.18-3.1,7.8-9.49,7.8
		c-2.61,0-5.47-0.76-6.92-1.73L942.41,435.77z"/>
	<path d="M987.8,435.77c1.57,0.96,3.86,1.77,6.27,1.77c3.58,0,5.67-1.89,5.67-4.62c0-2.53-1.45-3.98-5.11-5.39
		c-4.42-1.57-7.16-3.86-7.16-7.68c0-4.22,3.5-7.36,8.76-7.36c2.77,0,4.79,0.64,5.99,1.33l-0.96,2.85c-0.88-0.48-2.69-1.29-5.15-1.29
		c-3.7,0-5.11,2.21-5.11,4.06c0,2.53,1.65,3.78,5.39,5.23c4.58,1.77,6.92,3.98,6.92,7.96c0,4.18-3.1,7.8-9.49,7.8
		c-2.61,0-5.47-0.76-6.92-1.73L987.8,435.77z"/>
</g>
</svg>
